<svg width="17" height="20" viewBox="0 0 17 20" fill="none" xmlns="http://www.w3.org/2000/svg">
<path d="M3.14858 8.86669C3.21854 8.95107 3.30445 9.02082 3.40141 9.07195C3.49836 9.12308 3.60445 9.15457 3.7136 9.16464C3.82275 9.1747 3.93281 9.16313 4.03748 9.13059C4.14215 9.09806 4.23937 9.04519 4.32358 8.97502L7.95691 5.95002V15.8334C7.95691 16.0544 8.04471 16.2663 8.20099 16.4226C8.35727 16.5789 8.56923 16.6667 8.79025 16.6667C9.01126 16.6667 9.22322 16.5789 9.3795 16.4226C9.53578 16.2663 9.62358 16.0544 9.62358 15.8334V5.95002L13.2569 8.97502C13.3412 9.04506 13.4384 9.09782 13.5431 9.13028C13.6477 9.16274 13.7577 9.17427 13.8668 9.16421C13.976 9.15415 14.082 9.12269 14.179 9.07165C14.2759 9.0206 14.3619 8.95095 14.4319 8.86669C14.502 8.78242 14.5547 8.68519 14.5872 8.58054C14.6196 8.47588 14.6312 8.36586 14.6211 8.25675C14.611 8.14764 14.5796 8.04158 14.5285 7.94463C14.4775 7.84768 14.4078 7.76173 14.3236 7.69169L9.32358 3.52502L9.19858 3.45002L9.09024 3.39169C8.89718 3.31719 8.68331 3.31719 8.49025 3.39169L8.38191 3.45002L8.25691 3.52502L3.25691 7.69169C3.17253 7.76165 3.10278 7.84756 3.05165 7.94452C3.00052 8.04148 2.96903 8.14756 2.95896 8.25671C2.9489 8.36586 2.96047 8.47592 2.99301 8.58059C3.02554 8.68526 3.07841 8.78248 3.14858 8.86669Z" fill="#37374D"/>
</svg>
