<svg width="21" height="20" viewBox="0 0 21 20" fill="none" xmlns="http://www.w3.org/2000/svg">
<path d="M17.3874 4.97879C17.3874 4.7587 17.3 4.54762 17.1443 4.39199C16.9887 4.23636 16.7776 4.14893 16.5575 4.14893C16.3374 4.14893 16.1264 4.23636 15.9707 4.39199C15.8151 4.54762 15.7277 4.7587 15.7277 4.97879V9.12811C15.7283 9.23733 15.7074 9.34559 15.6661 9.4467C15.6248 9.54781 15.5639 9.63977 15.487 9.71732C15.4095 9.79423 15.3175 9.85508 15.2164 9.89638C15.1153 9.93767 15.007 9.95861 14.8978 9.95798H7.49541L9.72775 7.14474C9.79233 6.9777 9.80115 6.79424 9.75287 6.62178C9.7046 6.44932 9.60183 6.2971 9.45991 6.18786C9.31799 6.07862 9.14454 6.01822 8.96547 6.01569C8.7864 6.01315 8.61131 6.06862 8.46635 6.1738L5.1469 10.3231C5.02905 10.4703 4.96484 10.6532 4.96484 10.8418C4.96484 11.0303 5.02905 11.2133 5.1469 11.3604L8.46635 15.5098C8.54446 15.6061 8.64315 15.6836 8.75516 15.7367C8.86717 15.7899 8.98967 15.8172 9.11365 15.8168C9.30084 15.8157 9.48216 15.7514 9.62816 15.6343C9.71341 15.5658 9.78429 15.4811 9.83671 15.3851C9.88914 15.2892 9.92208 15.1838 9.93365 15.0751C9.94522 14.9663 9.93518 14.8564 9.90412 14.7515C9.87306 14.6467 9.82158 14.549 9.75264 14.4641L7.5452 11.6758H14.9476C15.6079 11.6758 16.2411 11.4135 16.708 10.9466C17.1749 10.4797 17.4372 9.84648 17.4372 9.1862L17.3874 4.97879Z" fill="#37374D"/>
</svg>
