<svg width="15" height="20" viewBox="0 0 15 20" fill="none" xmlns="http://www.w3.org/2000/svg">
<path d="M13.432 11.1334C13.362 11.049 13.2761 10.9792 13.1791 10.9281C13.0822 10.877 12.9761 10.8455 12.867 10.8354C12.7578 10.8254 12.6477 10.8369 12.5431 10.8695C12.4384 10.902 12.3412 10.9549 12.257 11.025L8.62364 14.05V4.16671C8.62364 3.94569 8.53584 3.73373 8.37956 3.57745C8.22328 3.42117 8.01132 3.33337 7.79031 3.33337C7.56929 3.33337 7.35733 3.42117 7.20105 3.57745C7.04477 3.73373 6.95697 3.94569 6.95697 4.16671V14.05L3.32364 11.025C3.23938 10.955 3.14214 10.9022 3.03749 10.8698C2.93283 10.8373 2.82281 10.8258 2.7137 10.8359C2.6046 10.8459 2.49854 10.8774 2.40158 10.9284C2.30463 10.9795 2.21868 11.0491 2.14864 11.1334C2.0786 11.2176 2.02585 11.3149 1.99339 11.4195C1.96093 11.5242 1.9494 11.6342 1.95946 11.7433C1.96952 11.8524 2.00097 11.9585 2.05202 12.0554C2.10306 12.1524 2.17271 12.2383 2.25697 12.3084L7.25697 16.475L7.38197 16.55L7.49031 16.6084C7.68337 16.6829 7.89724 16.6829 8.09031 16.6084L8.19864 16.55L8.32364 16.475L13.3236 12.3084C13.408 12.2384 13.4778 12.1525 13.5289 12.0555C13.58 11.9586 13.6115 11.8525 13.6216 11.7434C13.6317 11.6342 13.6201 11.5241 13.5875 11.4195C13.555 11.3148 13.5021 11.2176 13.432 11.1334Z" fill="#37374D"/>
</svg>
